<svg xmlns="http://www.w3.org/2000/svg" xmlns:xlink="http://www.w3.org/1999/xlink" contentStyleType="text/css" data-diagram-type="DESCRIPTION" height="868px" preserveAspectRatio="none" style="width:1057px;height:868px;background:#FFFFFF;" version="1.1" viewBox="0 0 1057 868" width="1057px" zoomAndPan="magnify"><defs/><g><!--cluster Phase 1: Automated Data Structuring--><g class="cluster" data-entity="Phase 1. Automated Data Structuring" data-source-line="6" data-uid="ent0002" id="cluster_Phase 1. Automated Data Structuring"><path d="M8.5,6 L306.6992,6 A3.75,3.75 0 0 1 309.1992,8.5 L316.1992,28.2969 L459.5,28.2969 A2.5,2.5 0 0 1 462,30.7969 L462,630.28 A2.5,2.5 0 0 1 459.5,632.78 L8.5,632.78 A2.5,2.5 0 0 1 6,630.28 L6,8.5 A2.5,2.5 0 0 1 8.5,6" fill="none" style="stroke:#000000;stroke-width:1.5;"/><line style="stroke:#000000;stroke-width:1.5;" x1="6" x2="316.1992" y1="28.2969" y2="28.2969"/><text fill="#000000" font-family="sans-serif" font-size="14" font-weight="bold" lengthAdjust="spacing" textLength="297.1992" x="10" y="20.9951">Phase 1: Automated Data Structuring</text></g><!--cluster Phase 2: Grounded Q&A System--><g class="cluster" data-entity="Phase 2. Grounded Q.A System" data-source-line="22" data-uid="ent0014" id="cluster_Phase 2. Grounded Q.A System"><path d="M488.5,535.48 L742.5869,535.48 A3.75,3.75 0 0 1 745.0869,537.98 L752.0869,557.7769 L1047.5,557.7769 A2.5,2.5 0 0 1 1050,560.2769 L1050,858.87 A2.5,2.5 0 0 1 1047.5,861.37 L488.5,861.37 A2.5,2.5 0 0 1 486,858.87 L486,537.98 A2.5,2.5 0 0 1 488.5,535.48" fill="none" style="stroke:#000000;stroke-width:1.5;"/><line style="stroke:#000000;stroke-width:1.5;" x1="486" x2="752.0869" y1="557.7769" y2="557.7769"/><text fill="#000000" font-family="sans-serif" font-size="14" font-weight="bold" lengthAdjust="spacing" textLength="253.0869" x="490" y="550.4751">Phase 2: Grounded Q&amp;A System</text></g><!--entity xlsx--><g class="entity" data-entity="xlsx" data-source-line="7" data-uid="ent0003" id="entity_xlsx"><rect fill="#F1F1F1" height="46.2969" rx="2.5" ry="2.5" style="stroke:#181818;stroke-width:0.5;" width="193.3711" x="137.31" y="41"/><rect fill="#F1F1F1" height="10" style="stroke:#181818;stroke-width:0.5;" width="15" x="310.6811" y="46"/><rect fill="#F1F1F1" height="2" style="stroke:#181818;stroke-width:0.5;" width="4" x="308.6811" y="48"/><rect fill="#F1F1F1" height="2" style="stroke:#181818;stroke-width:0.5;" width="4" x="308.6811" y="52"/><text fill="#000000" font-family="sans-serif" font-size="14" lengthAdjust="spacing" textLength="153.3711" x="152.31" y="73.9951">Raw WEO Data (.xlsx)</text></g><!--entity csv--><g class="entity" data-entity="csv" data-source-line="8" data-uid="ent0004" id="entity_csv"><rect fill="#F1F1F1" height="46.2969" rx="2.5" ry="2.5" style="stroke:#181818;stroke-width:0.5;" width="274.0693" x="114.97" y="354.89"/><rect fill="#F1F1F1" height="10" style="stroke:#181818;stroke-width:0.5;" width="15" x="369.0393" y="359.89"/><rect fill="#F1F1F1" height="2" style="stroke:#181818;stroke-width:0.5;" width="4" x="367.0393" y="361.89"/><rect fill="#F1F1F1" height="2" style="stroke:#181818;stroke-width:0.5;" width="4" x="367.0393" y="365.89"/><text fill="#000000" font-family="sans-serif" font-size="14" lengthAdjust="spacing" textLength="234.0693" x="129.97" y="387.8851">Intermediate: Column-Based CSV</text></g><!--entity json--><g class="entity" data-entity="json" data-source-line="9" data-uid="ent0005" id="entity_json"><rect fill="#F1F1F1" height="46.2969" rx="2.5" ry="2.5" style="stroke:#181818;stroke-width:0.5;" width="279.9551" x="160.02" y="570.48"/><rect fill="#F1F1F1" height="10" style="stroke:#181818;stroke-width:0.5;" width="15" x="419.9751" y="575.48"/><rect fill="#F1F1F1" height="2" style="stroke:#181818;stroke-width:0.5;" width="4" x="417.9751" y="577.48"/><rect fill="#F1F1F1" height="2" style="stroke:#181818;stroke-width:0.5;" width="4" x="417.9751" y="581.48"/><text fill="#000000" font-family="sans-serif" font-size="14" lengthAdjust="spacing" textLength="239.9551" x="175.02" y="603.4751">Hierarchical Data Structure (.json)</text></g><!--entity py1--><g class="entity" data-entity="py1" data-source-line="11" data-uid="ent0006" id="entity_py1"><polygon fill="#F1F1F1" points="408.41,161.44,321.2,148.29,146.8,148.29,59.59,161.44,146.8,174.59,321.2,174.59,408.41,161.44" style="stroke:#181818;stroke-width:0.5;"/><text fill="#000000" font-family="sans-serif" font-size="14" lengthAdjust="spacing" textLength="174.4053" x="146.7926" y="166.2851">1. Python Pre-processing</text></g><!--entity llm1--><g class="entity" data-entity="llm1" data-source-line="12" data-uid="ent0007" id="entity_llm1"><polygon fill="#F1F1F1" points="446.32,264.74,340.16,251.59,127.84,251.59,21.68,264.74,127.84,277.89,340.16,277.89,446.32,264.74" style="stroke:#181818;stroke-width:0.5;"/><text fill="#000000" font-family="sans-serif" font-size="14" lengthAdjust="spacing" textLength="212.3242" x="127.8421" y="269.5851">2. LLM-Guided Transformation</text></g><!--entity py2--><g class="entity" data-entity="py2" data-source-line="13" data-uid="ent0008" id="entity_py2"><polygon fill="#F1F1F1" points="443.86,475.33,353.93,462.18,174.07,462.18,84.14,475.33,174.07,488.48,353.93,488.48,443.86,475.33" style="stroke:#181818;stroke-width:0.5;"/><text fill="#000000" font-family="sans-serif" font-size="14" lengthAdjust="spacing" textLength="179.8604" x="174.0702" y="480.1751">3. Rule-Based Structuring</text></g><!--entity question--><g class="entity" data-entity="question" data-source-line="23" data-uid="ent0015" id="entity_question"><rect fill="#F1F1F1" height="46.2969" rx="2.5" ry="2.5" style="stroke:#181818;stroke-width:0.5;" width="138.9775" x="698.51" y="570.48"/><rect fill="#F1F1F1" height="10" style="stroke:#181818;stroke-width:0.5;" width="15" x="817.4875" y="575.48"/><rect fill="#F1F1F1" height="2" style="stroke:#181818;stroke-width:0.5;" width="4" x="815.4875" y="577.48"/><rect fill="#F1F1F1" height="2" style="stroke:#181818;stroke-width:0.5;" width="4" x="815.4875" y="581.48"/><text fill="#000000" font-family="sans-serif" font-size="14" lengthAdjust="spacing" textLength="98.9775" x="713.51" y="603.4751">User Question</text></g><!--entity answer--><g class="entity" data-entity="answer" data-source-line="24" data-uid="ent0016" id="entity_answer"><rect fill="#F1F1F1" height="46.2969" rx="2.5" ry="2.5" style="stroke:#181818;stroke-width:0.5;" width="168.3857" x="683.81" y="799.07"/><rect fill="#F1F1F1" height="10" style="stroke:#181818;stroke-width:0.5;" width="15" x="832.1957" y="804.07"/><rect fill="#F1F1F1" height="2" style="stroke:#181818;stroke-width:0.5;" width="4" x="830.1957" y="806.07"/><rect fill="#F1F1F1" height="2" style="stroke:#181818;stroke-width:0.5;" width="4" x="830.1957" y="810.07"/><text fill="#000000" font-family="sans-serif" font-size="14" lengthAdjust="spacing" textLength="128.3857" x="698.81" y="832.0651">Final Answer (.txt)</text></g><!--entity llm2--><g class="entity" data-entity="llm2" data-source-line="26" data-uid="ent0017" id="entity_llm2"><polygon fill="#F1F1F1" points="1034.28,708.92,901.14,695.78,634.86,695.78,501.72,708.92,634.86,722.07,901.14,722.07,1034.28,708.92" style="stroke:#181818;stroke-width:0.5;"/><text fill="#000000" font-family="sans-serif" font-size="14" lengthAdjust="spacing" textLength="266.2803" x="634.8601" y="713.7751">4. Reasoning LLM-Powered Answering</text></g><!--link xlsx to py1--><g class="link" data-entity-1="xlsx" data-entity-2="py1" data-source-line="15" data-uid="lnk9" id="link_xlsx_py1"><path d="M234,87.73 C234,106.55 234,126.67 234,141.94" fill="none" id="xlsx-to-py1" style="stroke:#181818;stroke-width:1;"/><polygon fill="#181818" points="234,147.94,238,138.94,234,142.94,230,138.94,234,147.94" style="stroke:#181818;stroke-width:1;"/></g><!--link py1 to llm1--><g class="link" data-entity-1="py1" data-entity-2="llm1" data-source-line="16" data-uid="lnk10" id="link_py1_llm1"><path d="M234,174.86 C234,194.3 234,225.71 234,245.21" fill="none" id="py1-to-llm1" style="stroke:#181818;stroke-width:1;"/><polygon fill="#181818" points="234,251.21,238,242.21,234,246.21,230,242.21,234,251.21" style="stroke:#181818;stroke-width:1;"/><text fill="#000000" font-family="sans-serif" font-size="13" lengthAdjust="spacing" textLength="155.5239" x="235" y="217.6569">Formatted Text + Rules</text></g><!--link llm1 to csv--><g class="link" data-entity-1="llm1" data-entity-2="csv" data-source-line="17" data-uid="lnk11" id="link_llm1_csv"><path d="M236,278.07 C238.98,296.52 243.6915,325.677 247.4215,348.727" fill="none" id="llm1-to-csv" style="stroke:#181818;stroke-width:1;"/><polygon fill="#181818" points="248.38,354.65,250.8909,345.1266,247.5813,349.7142,242.9937,346.4046,248.38,354.65" style="stroke:#181818;stroke-width:1;"/><text fill="#000000" font-family="sans-serif" font-size="13" lengthAdjust="spacing" textLength="142.251" x="244" y="320.9569">Generated CSV String</text></g><!--link csv to py2--><g class="link" data-entity-1="csv" data-entity-2="py2" data-source-line="18" data-uid="lnk12" id="link_csv_py2"><path d="M254.84,401.62 C257.21,420.44 259.7476,440.6074 261.6776,455.8774" fill="none" id="csv-to-py2" style="stroke:#181818;stroke-width:1;"/><polygon fill="#181818" points="262.43,461.83,265.2699,452.3995,261.803,456.8695,257.333,453.4026,262.43,461.83" style="stroke:#181818;stroke-width:1;"/></g><!--link py2 to json--><g class="link" data-entity-1="py2" data-entity-2="json" data-source-line="19" data-uid="lnk13" id="link_py2_json"><path d="M267.85,488.78 C273.87,508.23 283.8244,540.3888 291.3344,564.6288" fill="none" id="py2-to-json" style="stroke:#181818;stroke-width:1;"/><polygon fill="#181818" points="293.11,570.36,294.2674,560.5794,291.6303,565.584,286.6257,562.9469,293.11,570.36" style="stroke:#181818;stroke-width:1;"/></g><!--link question to llm2--><g class="link" data-entity-1="question" data-entity-2="llm2" data-source-line="28" data-uid="lnk18" id="link_question_llm2"><path d="M768,617.01 C768,640.49 768,670.53 768,689.41" fill="none" id="question-to-llm2" style="stroke:#181818;stroke-width:1;"/><polygon fill="#181818" points="768,695.41,772,686.41,768,690.41,764,686.41,768,695.41" style="stroke:#181818;stroke-width:1;"/></g><!--link json to llm2--><g class="link" data-entity-1="json" data-entity-2="llm2" data-source-line="29" data-uid="lnk19" id="link_json_llm2"><path d="M390.31,617.22 C420.7,624.77 454.8,633.19 486,640.78 C565.47,660.1 651.8303,680.5624 708.5903,693.9524" fill="none" id="json-to-llm2" style="stroke:#181818;stroke-width:1;"/><polygon fill="#181818" points="714.43,695.33,706.5889,689.3704,709.5636,694.182,704.752,697.1567,714.43,695.33" style="stroke:#181818;stroke-width:1;"/><text fill="#000000" font-family="sans-serif" font-size="13" lengthAdjust="spacing" textLength="114.4038" x="587" y="661.8469">Full JSON Context</text></g><!--link llm2 to answer--><g class="link" data-entity-1="llm2" data-entity-2="answer" data-source-line="30" data-uid="lnk20" id="link_llm2_answer"><path d="M768,722.26 C768,740.71 768,769.79 768,792.83" fill="none" id="llm2-to-answer" style="stroke:#181818;stroke-width:1;"/><polygon fill="#181818" points="768,798.83,772,789.83,768,793.83,764,789.83,768,798.83" style="stroke:#181818;stroke-width:1;"/><text fill="#000000" font-family="sans-serif" font-size="13" lengthAdjust="spacing" textLength="105.187" x="769" y="765.1369">Structured JSON</text></g><!--SRC=[PP9DRzD048Rl_XKZ7r0HiaKCfnoGqa83gD0qAUM0E0psD3PTxuRz88vG_pipOwSYmWThP_VTTsQUdV3GsHrwxC5J7T5k3S6V3FWBBJPktzajtAC9f7i_d6_8hx7fKe3Po-mnotPOF-2M85-r60XcSrYaw7gCrC1RZ0YRw5CTasUdNAs_hN4FNzzTZyTdvM32yFmxO01PYU23ZUHxQZfscSE5CwctnJdRDt2nkLDf7NwBydr77dtTTZMQqtJ4pZ-3iwEph3A-qDA0MsSXdvMmEiIMbojFnSwxcaBG4bczEyp-rLObN5rzAfQfQxY2Muyst3lFBNREgjwO_kJ2gnBMoT1KyWa0TQ-a56aMYkBDb8t_6eaNp26_r0n2yPQ622_KCUIiL8L8cO4ebsGPGXpXI3P9n3ev7lqhzQyqKXB_lrirXwLtoKg7DyyMi3c4IFtqO5y2URX95AHZvVbh2kJqihCCVs73dbLdPHpYo1nrvuJwQmP3o1N8M0dJbMC9fnnl7mbnXuhecEK8HlgG-fzY1PMCWO-RwyyyA3mtGvmOZUsEHOZkQJ0QLUVPury0]--></g></svg>